Land_normalized_Motion_pl14
version=1
nRows=12
nColumns=43
inDegrees=yes
endheader
time		pelvis_tilt		pelvis_list		pelvis_rotation		pelvis_tx		pelvis_ty		pelvis_tz		hip_flexion_r		hip_adduction_r		hip_rotation_r		knee_angle_r		ankle_angle_r		subtalar_angle_r		mtp_angle_r		hip_flexion_l		hip_adduction_l		hip_rotation_l		knee_angle_l		ankle_angle_l		subtalar_angle_l		mtp_angle_l		lumbar_extension		lumbar_bending		lumbar_rotation		neck_flexion		neck_lateral_bending		neck_rotation		arm_flex_r		arm_add_r		arm_rot_r		elbow_flex_r		pro_sup_r		wrist_flex_r		wrist_dev_r		hand_finger_flex_r		arm_flex_l		arm_add_l		arm_rot_l		elbow_flex_l		pro_sup_l		wrist_flex_l		wrist_dev_l		hand_finger_flex_l		
1.410833		3.684483		7.136533		94.228885		0.022684		0.664138		0.552010		64.032474		-0.028328		-6.819573		-98.292412		19.292212		-14.754689		-1.736683		65.881736		-5.636839		3.393669		-97.610495		20.245143		5.914656		5.975855		-50.057647		0.793446		4.861983		16.594665		-5.011425		-7.853438		-2.893179		-20.998643		-19.852906		51.037553		114.131000		7.387850		-9.005958		12.771199		-7.762047		-18.175882		-9.977703		59.431558		122.272171		-36.986992		-13.332990		-11.231554		
1.413662		3.632605		7.641906		94.364470		0.022528		0.657455		0.549938		64.510800		-0.144467		-6.706654		-99.967639		19.364950		-14.505021		-1.527140		66.525055		-5.453035		3.610260		-99.368366		19.907698		5.950713		6.887143		-51.183072		0.819437		5.031517		17.706659		-5.094664		-8.098591		-0.506055		-21.524875		-19.015116		51.761643		114.304608		7.219203		-9.195503		13.372374		-5.055922		-18.695092		-8.356954		59.765625		123.036866		-37.234880		-12.757077		-11.500687		
1.416490		3.586402		8.015546		94.459126		0.022495		0.650659		0.547964		65.130770		-0.198067		-6.534165		-101.576973		19.350086		-14.333255		-1.445835		67.279653		-5.324376		3.819287		-101.049285		19.699950		6.119260		7.063089		-52.147892		0.803353		5.137821		18.777450		-5.103753		-8.177559		2.017790		-22.048701		-18.107657		52.421725		114.642640		7.362349		-9.178675		13.547433		-2.450039		-19.078029		-7.202046		60.145976		123.518420		-36.823299		-12.920941		-11.464786		
1.419318		3.525108		8.511719		94.623367		0.022214		0.644238		0.546029		65.563650		-0.350597		-6.349057		-103.131854		19.246805		-13.908926		0.033502		67.872336		-5.136709		4.050961		-102.634796		19.103458		6.259588		10.051331		-53.220309		0.864711		5.343209		19.697005		-5.316965		-8.532311		4.369848		-22.670129		-17.135433		53.225256		114.991754		6.562888		-9.355576		15.656592		0.406888		-19.643073		-5.236411		60.458690		124.762454		-36.884096		-11.842066		-12.905049		
1.422146		3.498032		8.891711		94.771776		0.022007		0.637825		0.544245		66.091125		-0.462738		-6.166462		-104.597094		19.245476		-13.529501		0.636890		68.557818		-4.961788		4.324994		-104.138110		18.758429		6.478798		11.205709		-54.175388		0.904443		5.479634		20.706877		-5.251283		-8.647140		6.913415		-23.240771		-16.159257		53.873941		115.376179		6.339551		-9.362121		16.483505		3.156637		-20.010373		-3.814000		60.798902		125.498730		-36.598385		-11.730640		-13.382220		
1.424975		3.516701		9.394928		95.058630		0.021399		0.631699		0.542473		66.400127		-0.761063		-6.057897		-106.038307		19.643552		-12.364492		1.172706		69.115857		-4.680631		4.733421		-105.602032		18.537741		7.095982		11.783209		-55.207788		1.150032		5.496642		21.523964		-5.337697		-8.687395		9.526020		-23.942588		-14.856615		54.582502		115.963897		6.179362		-9.386223		16.840424		5.958286		-20.407713		-2.142778		60.895673		125.972787		-37.034775		-11.858380		-13.872673		
1.427803		3.462860		9.670832		95.139417		0.021314		0.625265		0.540790		67.026531		-0.844496		-5.809855		-107.433049		19.574318		-12.013681		1.562098		69.864315		-4.577731		4.965973		-106.989441		18.273407		7.417866		12.241563		-56.015074		1.108128		5.615297		22.472339		-5.265101		-8.741376		12.155532		-24.480255		-13.878934		55.183066		116.383064		6.241175		-9.323041		17.218480		8.695841		-20.783702		-0.707150		61.257501		126.350094		-36.748392		-12.200746		-13.803870		
1.430631		3.340489		10.007415		95.258001		0.021118		0.618909		0.539072		67.568397		-1.045890		-5.484397		-108.842745		19.470453		-11.225522		3.628662		70.524988		-4.442099		5.177344		-108.325231		17.739744		7.987494		14.736586		-56.820348		1.069557		5.752596		23.151317		-5.337689		-8.950465		14.673595		-25.095900		-12.800073		55.851922		116.911830		5.627812		-9.375871		18.972724		11.740801		-21.350798		1.662952		61.246911		126.152256		-37.575934		-12.230674		-13.968552		
1.433460		3.270528		10.235436		95.337623		0.021063		0.612460		0.537338		68.219794		-1.201608		-5.235475		-110.215664		19.550439		-10.559153		3.810223		71.288105		-4.378916		5.431440		-109.641359		17.569576		8.720747		14.916787		-57.505909		1.004696		5.777627		23.943122		-5.159115		-8.949081		17.399769		-25.605446		-11.654296		56.396266		117.453551		5.804780		-9.212486		19.117864		14.462584		-21.631696		2.890264		61.529887		126.624982		-37.270675		-12.668247		-13.831638		
1.436288		3.103021		10.470512		95.415876		0.021027		0.605936		0.535496		68.870227		-1.440939		-4.864949		-111.622158		19.686744		-9.488292		4.869950		72.001030		-4.313888		5.631669		-110.926086		17.324415		9.750477		16.062417		-58.138797		0.864413		5.775704		24.537433		-5.004525		-8.982983		20.048325		-26.101262		-10.532713		56.949567		118.165658		5.741959		-9.162045		19.748255		17.402851		-22.080367		4.876505		61.560155		126.509320		-38.027226		-12.839606		-13.567336		
1.439116		2.936556		10.636889		95.448167		0.021205		0.599479		0.533700		69.598970		-1.642206		-4.543409		-112.983481		19.703280		-8.704148		5.808232		72.728658		-4.311514		5.796180		-112.134417		17.163528		10.614150		17.094837		-58.695908		0.664845		5.769376		25.195904		-4.822920		-9.059847		22.761081		-26.446410		-9.548733		57.399989		118.797228		5.715993		-9.034238		20.310961		20.320373		-22.515014		6.714430		61.626465		126.484487		-38.432889		-13.060182		-13.198816		
1.441944		2.752453		10.751792		95.459019		0.021453		0.592909		0.531862		70.398809		-1.837362		-4.209584		-114.339263		19.735681		-7.932229		6.107801		73.499197		-4.362696		5.935312		-113.349702		17.142193		11.685253		17.394002		-59.153165		0.435936		5.694324		25.729918		-4.619995		-9.081407		25.520427		-26.775438		-8.425731		57.835355		119.424008		5.919006		-8.713118		20.496433		23.113588		-22.860271		8.150785		61.768678		126.899828		-38.254255		-13.274928		-13.100162		
